{
  "accessors": [
    {
      "bufferView": 2,
      "componentType": 5126,
      "count": 1751,
      "max": [
        0.763839066028595,
        1.5913630723953247,
        0.2667749524116516
      ],
      "min": [
        -0.7571595907211304,
        -0.0007345026824623346,
        -0.2621501088142395
      ],
      "type": "VEC3"
    },
    {
      "bufferView": 2,
      "byteOffset": 21012,
      "componentType": 5126,
      "count": 1751,
      "max": [
        0.9988225698471069,
        0.9999469518661499,
        0.9999291896820068
      ],
      "min": [
        -0.9986521005630493,
        -0.9999995231628418,
        -0.9995577931404114
      ],
      "type": "VEC3"
    },
    {
      "bufferView": 3,
      "componentType": 5126,
      "count": 1751,
      "max": [
        0.999758780002594,
        0.9992138147354126,
        0.9997754096984863,
        1.0
      ],
      "min": [
        -0.9996353387832642,
        -0.9889508485794067,
        -0.9997454285621643,
        -1.0
      ],
      "type": "VEC4"
    },
    {
      "bufferView": 1,
      "componentType": 5126,
      "count": 1751,
      "max": [
        0.9999610185623169,
        0.9982878565788269
      ],
      "min": [
        0.0008312216377817094,
        0.03672793135046959
      ],
      "type": "VEC2"
    },
    {
      "bufferView": 1,
      "byteOffset": 14008,
      "componentType": 5126,
      "count": 1751,
      "max": [
        0.9999610185623169,
        0.9982878565788269
      ],
      "min": [
        0.0008312216377817094,
        0.03672793135046959
      ],
      "type": "VEC2"
    },
    {
      "bufferView": 1,
      "byteOffset": 28016,
      "componentType": 5126,
      "count": 1751,
      "max": [
        0.9999610185623169,
        0.9982878565788269
      ],
      "min": [
        0.0008312216377817094,
        0.03672793135046959
      ],
      "type": "VEC2"
    },
    {
      "bufferView": 0,
      "componentType": 5125,
      "count": 6330,
      "type": "SCALAR"
    }
  ],
  "asset": {
    "extras": {
      "author": "David Wigforss (https://sketchfab.com/dwigfor)",
      "license": "CC-BY-NC-4.0 (http://creativecommons.org/licenses/by-nc/4.0/)",
      "source": "https://sketchfab.com/3d-models/rhody-ram-ba1a42f94b9b43e1910eff37fccc1e9f",
      "title": "Rhody Ram"
    },
    "generator": "Sketchfab-15.49.0",
    "version": "2.0"
  },
  "bufferViews": [
    {
      "buffer": 0,
      "byteLength": 25320,
      "name": "floatBufferViews",
      "target": 34963
    },
    {
      "buffer": 0,
      "byteLength": 42024,
      "byteOffset": 25320,
      "byteStride": 8,
      "name": "floatBufferViews",
      "target": 34962
    },
    {
      "buffer": 0,
      "byteLength": 42024,
      "byteOffset": 67344,
      "byteStride": 12,
      "name": "floatBufferViews",
      "target": 34962
    },
    {
      "buffer": 0,
      "byteLength": 28016,
      "byteOffset": 109368,
      "byteStride": 16,
      "name": "floatBufferViews",
      "target": 34962
    }
  ],
  "buffers": [
    {
      "byteLength": 137384,
      "uri": "scene.bin"
    }
  ],
  "images": [
    {
      "uri": "textures/MAT_Animal_Ram_Rhody_baseColor.png"
    },
    {
      "uri": "textures/MAT_Animal_Ram_Rhody_metallicRoughness.png"
    },
    {
      "uri": "textures/MAT_Animal_Ram_Rhody_normal.png"
    }
  ],
  "materials": [
    {
      "doubleSided": true,
      "name": "MAT_Animal_Ram_Rhody",
      "normalTexture": {
        "index": 2
      },
      "pbrMetallicRoughness": {
        "baseColorTexture": {
          "index": 0
        },
        "metallicRoughnessTexture": {
          "index": 1
        }
      }
    }
  ],
  "meshes": [
    {
      "name": "geo1_MAT_Animal_Ram_Rhody_0",
      "primitives": [
        {
          "attributes": {
            "NORMAL": 1,
            "POSITION": 0,
            "TANGENT": 2,
            "TEXCOORD_0": 3,
            "TEXCOORD_1": 4,
            "TEXCOORD_2": 5
          },
          "indices": 6,
          "material": 0,
          "mode": 4
        }
      ]
    }
  ],
  "nodes": [
    {
      "children": [
        1
      ],
      "matrix": [
        1.0,
        0.0,
        0.0,
        0.0,
        0.0,
        2.220446049250313e-16,
        -1.0,
        0.0,
        0.0,
        1.0,
        2.220446049250313e-16,
        0.0,
        0.0,
        0.0,
        0.0,
        1.0
      ],
      "name": "Sketchfab_model"
    },
    {
      "children": [
        2
      ],
      "matrix": [
        0.009999999776482582,
        0.0,
        0.0,
        0.0,
        0.0,
        0.0,
        0.009999999776482582,
        0.0,
        0.0,
        -0.009999999776482582,
        0.0,
        0.0,
        0.0,
        0.0,
        0.0,
        1.0
      ],
      "name": "mesh.fbx"
    },
    {
      "children": [
        3
      ],
      "name": "RootNode"
    },
    {
      "children": [
        4
      ],
      "name": "geo1"
    },
    {
      "mesh": 0,
      "name": "geo1_MAT_Animal_Ram_Rhody_0"
    }
  ],
  "samplers": [
    {
      "magFilter": 9729,
      "minFilter": 9987,
      "wrapS": 10497,
      "wrapT": 10497
    }
  ],
  "scene": 0,
  "scenes": [
    {
      "name": "Sketchfab_Scene",
      "nodes": [
        0
      ]
    }
  ],
  "textures": [
    {
      "sampler": 0,
      "source": 0
    },
    {
      "sampler": 0,
      "source": 1
    },
    {
      "sampler": 0,
      "source": 2
    }
  ]
}
