{
	"asset":{
		"generator":"Khronos glTF Blender I/O v4.1.62",
		"version":"2.0"
	},
	"extensionsUsed":[
		"KHR_materials_clearcoat",
		"KHR_materials_sheen"
	],
	"scene":0,
	"scenes":[
		{
			"name":"Scene",
			"nodes":[
				0
			]
		}
	],
	"nodes":[
		{
			"mesh":0,
			"name":"geo1_MAT_Animal_Ram_Rhody_0"
		}
	],
	"materials":[
		{
			"doubleSided":true,
			"extensions":{
				"KHR_materials_clearcoat":{
					"clearcoatFactor":0.3678756356239319,
					"clearcoatRoughnessFactor":0.26834195852279663
				},
				"KHR_materials_sheen":{
					"sheenColorFactor":[
						1.0,
						0.39442893862724304,
						0.5035030245780945
					],
					"sheenRoughnessFactor":0.5
				}
			},
			"name":"Material.001",
			"normalTexture":{
				"index":0
			},
			"pbrMetallicRoughness":{
				"baseColorFactor":[
					1,
					0.006579483859241009,
					0.046497032046318054,
					1
				],
				"metallicFactor":0.3834196627140045,
				"roughnessFactor":0.28238344192504883
			}
		}
	],
	"meshes":[
		{
			"name":"geo1_MAT_Animal_Ram_Rhody_0.001",
			"primitives":[
				{
					"attributes":{
						"POSITION":0,
						"NORMAL":1,
						"TEXCOORD_0":2,
						"TEXCOORD_1":3,
						"TEXCOORD_2":4
					},
					"indices":5,
					"material":0
				}
			]
		}
	],
	"textures":[
		{
			"sampler":0,
			"source":0
		}
	],
	"images":[
		{
			"mimeType":"image/png",
			"name":"Untitled",
			"uri":"textures/Untitled.png"
		}
	],
	"accessors":[
		{
			"bufferView":0,
			"componentType":5126,
			"count":1768,
			"max":[
				0.763839066028595,
				1.5913630723953247,
				0.2667749524116516
			],
			"min":[
				-0.7571595907211304,
				-0.0007345026824623346,
				-0.2621501088142395
			],
			"type":"VEC3"
		},
		{
			"bufferView":1,
			"componentType":5126,
			"count":1768,
			"type":"VEC3"
		},
		{
			"bufferView":2,
			"componentType":5126,
			"count":1768,
			"type":"VEC2"
		},
		{
			"bufferView":3,
			"componentType":5126,
			"count":1768,
			"type":"VEC2"
		},
		{
			"bufferView":4,
			"componentType":5126,
			"count":1768,
			"type":"VEC2"
		},
		{
			"bufferView":5,
			"componentType":5123,
			"count":6330,
			"type":"SCALAR"
		}
	],
	"bufferViews":[
		{
			"buffer":0,
			"byteLength":21216,
			"byteOffset":0,
			"target":34962
		},
		{
			"buffer":0,
			"byteLength":21216,
			"byteOffset":21216,
			"target":34962
		},
		{
			"buffer":0,
			"byteLength":14144,
			"byteOffset":42432,
			"target":34962
		},
		{
			"buffer":0,
			"byteLength":14144,
			"byteOffset":56576,
			"target":34962
		},
		{
			"buffer":0,
			"byteLength":14144,
			"byteOffset":70720,
			"target":34962
		},
		{
			"buffer":0,
			"byteLength":12660,
			"byteOffset":84864,
			"target":34963
		}
	],
	"samplers":[
		{
			"magFilter":9729,
			"minFilter":9987
		}
	],
	"buffers":[
		{
			"byteLength":97524,
			"uri":"ram.bin"
		}
	]
}
